<?xml version="1.0" encoding="iso-8859-1"?>
<!-- Generator: Adobe Illustrator 19.0.0, SVG Export Plug-In . SVG Version: 6.00 Build 0)  -->
<svg version="1.1" id="Capa_1" xmlns="http://www.w3.org/2000/svg" xmlns:xlink="http://www.w3.org/1999/xlink" x="0px" y="0px"
	 viewBox="0 0 328.4 328.4" style="enable-background:new 0 0 328.4 328.4;" xml:space="preserve">
<g>
	<path style="fill:#4A566E;" d="M14.4,37.2H314c8,0,14.4,6.4,14.4,14.4v225.2c0,8-6.4,14.4-14.4,14.4H14.4c-8,0-14.4-6.4-14.4-14.4
		V51.6C0,43.6,6.4,37.2,14.4,37.2z"/>
	<path style="fill:#FFFFFF;" d="M58,80.8h212.4c6.8,0,12.4,5.6,12.4,12.4v142.4c0,6.8-5.6,12.4-12.4,12.4H58
		c-6.8,0-12.4-5.6-12.4-12.4V93.2C46,86.4,51.6,80.8,58,80.8z"/>
	<path style="fill:#00B594;" d="M190.4,248h80c6.8,0,12.4-5.6,12.4-12.4V198l-56.4-56.4l-70.8,71.2l-50-50l-60,60v12.8
		c0,6.8,5.6,12.4,12.4,12.4L190.4,248L190.4,248z"/>
	<circle style="fill:#FFCC03;" cx="154" cy="134.4" r="21.2"/>
</g>
<g>
</g>
<g>
</g>
<g>
</g>
<g>
</g>
<g>
</g>
<g>
</g>
<g>
</g>
<g>
</g>
<g>
</g>
<g>
</g>
<g>
</g>
<g>
</g>
<g>
</g>
<g>
</g>
<g>
</g>
</svg>
