<?xml version="1.0" encoding="iso-8859-1"?>
<!-- Generator: Adobe Illustrator 19.0.0, SVG Export Plug-In . SVG Version: 6.00 Build 0)  -->
<svg version="1.1" id="Capa_1" xmlns="http://www.w3.org/2000/svg" xmlns:xlink="http://www.w3.org/1999/xlink" x="0px" y="0px"
	 viewBox="0 0 512 512" style="enable-background:new 0 0 512 512;" xml:space="preserve">
<path style="fill:#E0230D;" d="M419.284,0h-30.905v512h30.905C470.278,512,512,470.278,512,419.284V92.716
	C512,41.722,470.278,0,419.284,0z"/>
<path style="fill:#FF5440;" d="M481.095,92.716v326.567c0,50.994-41.722,92.716-92.716,92.716H92.716
	C41.722,512,0,470.278,0,419.284V92.716C0,41.722,41.722,0,92.716,0h295.662C439.372,0,481.095,41.722,481.095,92.716z"/>
<path style="fill:#FFFFFF;" d="M256,61.811c-47.858,0-86.793,38.935-86.793,86.793v214.793c0,47.858,38.935,86.793,86.793,86.793
	s86.793-38.935,86.793-86.793V148.604C342.793,100.746,303.858,61.811,256,61.811z M301.586,363.396
	c0,25.135-20.45,45.586-45.586,45.586c-25.135,0-45.586-20.45-45.586-45.586V148.604c0-25.135,20.45-45.586,45.586-45.586
	s45.586,20.45,45.586,45.586V363.396z"/>
<g>
</g>
<g>
</g>
<g>
</g>
<g>
</g>
<g>
</g>
<g>
</g>
<g>
</g>
<g>
</g>
<g>
</g>
<g>
</g>
<g>
</g>
<g>
</g>
<g>
</g>
<g>
</g>
<g>
</g>
</svg>
